<?xml version="1.0" encoding="utf-8"?>
<!-- Generator: Adobe Illustrator 25.2.3, SVG Export Plug-In . SVG Version: 6.00 Build 0)  -->
<svg version="1.1" id="Ebene_1" xmlns="http://www.w3.org/2000/svg" xmlns:xlink="http://www.w3.org/1999/xlink" x="0px" y="0px"
	 viewBox="0 0 283.5 283.5" style="enable-background:new 0 0 283.5 283.5;" xml:space="preserve">
<style type="text/css">
	.st0{fill:none;}
	.st1{fill:#F5FF00;}
	.st2{fill-rule:evenodd;clip-rule:evenodd;fill:#F5FF00;}
	.st3{fill:#B1B3B3;}
</style>
<g>
	<g>
		<path class="st0" d="M141.6,162.2c2.3-3.2,0.7-4.8-4.9-4.9c2-2.6,5.4-2.8,10.3-0.7c3.4,1.6,7.3-0.7,5.5-4.1l0,0
			c-4.3-6.8-7.8-13.2-14.7-16.5c-3-1.2-16.9,2.4-22.7-4.1C113.3,142.7,122.1,152.8,141.6,162.2z"/>
		<path class="st0" d="M120.7,63.1c5.2-9.3,13.4-15.9,24.6-19.8c1.7-9.3,10.4-15.5,7.5-15.4c-15.5,4-28.2,15.9-38,35.7
			C119.4,63.2,121.4,63.1,120.7,63.1z"/>
		<path class="st0" d="M144.7,47c-15.8,8.6-23.8,16.1-22.6,21.8c4.7-6.8,12.6-11.8,23.1-14.8C144.6,51.6,144.5,49.1,144.7,47z"/>
		<path class="st1" d="M128.5,38.1C128.5,38.1,128.5,38.1,128.5,38.1c-6.8,7.2-12.9,16.7-17,28l8.3,0.1c-2.8,6.4-3.9,11.9-3.4,16.5
			c17.2-26.5,39.8-26.3,37-2.2c-0.8,3.6-11.8-1-17.2-0.4c-4.9,0.7-6.4,4.2-4.1,9.7c0.8,2.1-2.2,2.6-2.4,0.1c0-6-19.3-6-8.2,16
			c2.1,4.8-6.7,4.5-6.4,0.8c5,0.8,4.7-5.5,1.5-6c-5.3-0.6-7.6,4.3-2.3,10.2c4.8,4.4,16.1,0.8,13.8-9.5c-0.1-4.6,3.4-6.8,10.4-6.7
			c4.2,0,3.2-6.2,0.9-7.8c-2.5-2.7,4.6-5,5.7-1.4c0.8,4.7,3.2,6.8,7.3,6.3c5.5-0.4,10.6-0.5,15.2-0.3c4.6,0.9,3.7,10.5-1.6,6.7
			c2-6.9-12-8.8-10,12.2h-3.9c-1,2.6-0.1,2.1-2.7,2.7c0,1.5-0.7,2-0.7,2c-1.1-0.2-1.7,1-1.7,1c-5,10.8-14.2-8-16.8-6.1
			c0.6,10.7,1.4,15.7,7.5,18.6c0.4-5.9,10.2-1.6,11.2-3.1c6.9-10.9,14.8-13.5,15-15.2c0-1.5-0.3-8.6,1.9-9
			c20.4-4.5,3.8-12.7,3.8-15.9c0.5-30-16.4-26.2-15.8-33.1c2.8-21.1,20.7-20.3,17.1-25.7c-7.2-6.8-18.8-5.8-30.3,1.4
			C135.2,31.6,130.9,35.7,128.5,38.1z M122.1,68.8c-1.1-5.7,6.8-13.2,22.6-21.8c-0.2,2-0.2,4.6,0.5,6.9
			C134.8,57.1,126.8,62,122.1,68.8z M152.7,27.9c2.9-0.1-5.7,6.1-7.5,15.4c-11.2,3.9-19.4,10.5-24.6,19.8c0.7,0-1.3,0.1-5.9,0.5
			C124.6,43.8,137.2,31.9,152.7,27.9z"/>
		<path class="st1" d="M80.6,53c2.3,47,16.4,93.1,61.1,115.2c44.7-22.1,58.8-68.2,61.1-115.2c-11.3-7-25.1-12-38-14.9
			c-0.5,0.4-1.1,0.9-1.6,1.4c12.9,2.8,26.6,7.5,37.9,14.4c-1.8,35-10.4,72.2-37.1,96.9c-5.4-1.2-11.4-0.7-11.4-3.7
			c1.5-7.4-3.7-15-10-15.4c-4.8-0.1-9.9-1.8-15.5-5.3c2.2,3.2,2.8,5.4,1.8,6.8c-8,0.9-12.4-4-13.1-14.7c-4.5,5.6-7.3,12.3-8.1,19
			C90.1,113.9,83.9,83,82.4,54c12.7-7.7,26.9-12.4,41.5-15.1c0.6-0.7,1.2-1.4,1.8-2.1C109.8,39.5,94.4,44.5,80.6,53z M115.1,131.9
			c5.7,6.5,19.7,2.9,22.7,4.1c6.9,3.3,10.3,9.7,14.7,16.5l0,0c1.9,3.4-2.1,5.7-5.5,4.1c-4.9-2.1-8.4-1.9-10.3,0.7
			c5.6,0.1,7.2,1.7,4.9,4.9C122.1,152.8,113.3,142.7,115.1,131.9z"/>
		<path class="st1" d="M154.5,99.8c0.1-1.4,0.1-3.4,0-5.8c-1.4-0.1-2.6-0.2-5,0c0.2,1.4,2,1.6,3.4,1.9
			C153.1,96.7,153.7,99.8,154.5,99.8z"/>
		<path class="st2" d="M171.4,32.8c-1,0.9-2.3,1.7-3.6,2.6c12.9,3.2,27.3,8.5,38.5,15.8c-2.1,49.7-17,98.2-64.6,120.8
			c-47.8-22.8-62.6-71.5-64.6-120.8c15.8-10.3,33.9-15.8,52.4-18.4c1.6-1.6,3.1-3,4.2-4c-21.3,2.4-42.2,8.5-60.1,20.6
			c1.8,51.9,17.3,103.1,68.1,126.4c50.5-23.2,66.3-74,68.1-126.4C199.3,42.3,185.1,36.4,171.4,32.8z"/>
	</g>
	<g>
		<g>
			<path class="st3" d="M35.6,209.5c0-5.5-0.2-9.6-0.5-11.1c0.6,0.1,1.3,0.1,2.4,0.1c1.7,0,3.5-0.2,6.1-0.2c5,0,7.4,1,9.3,2.7
				c1.1,1,2.3,3,2.3,5.7c0,5.9-5,9.2-10.7,9.1c-0.2-0.7-0.6-2.5-0.8-3.1c3-0.2,6-1.3,6-5.3c0-2.1-0.7-3.4-1.9-4.3
				c-1-0.9-2.7-1.5-4.5-1.5c-0.6,0-1.5,0-1.8,0.2c-0.2,0.1-0.2,0.1-0.2,0.9v13.9c0,4.3,0.2,9.1,0.4,11c-0.6,0-1.9-0.1-3-0.1
				c-1.1,0-3,0.1-3.5,0.2c0.2-1.7,0.4-6.3,0.4-11.2V209.5z"/>
			<path class="st3" d="M61.3,221.5c-0.1,0-0.2,0-0.2,0.1c-0.8,2.1-1.6,4.3-2,5.8c-0.6,0-1.2-0.1-2.5-0.1c-1.5,0-2.8,0.1-3.2,0.1
				c0.9-1.7,2.3-4.7,4.4-8.9l6.6-14.5c0.7-1.4,0.9-1.8,1.2-1.8c0.2,0,0.5,0.3,1.2,1.8c0.5,1.1,4.1,8.3,7.3,14.8
				c1.7,3.4,3.5,7.2,4.7,8.6c-1.2,0-2.4-0.1-2.8-0.1c-1.6,0-3.4,0.1-4.2,0.1c-0.6-1.5-1.7-4.2-2.5-5.8c0-0.1,0-0.1-0.2-0.1H61.3z
				 M67.9,218c0.1,0,0.1,0,0.1-0.2l-2.8-6.6l-2.7,6.6c0,0.1,0,0.2,0.1,0.2H67.9z"/>
			<path class="st3" d="M82.9,212.1c0-4.7-0.3-8.3-0.5-9.5c0.5,0.1,1.8,0.1,2.7,0.1c1.8,0,3.2-0.1,3.7-0.2c-0.2,1.3-0.4,4.8-0.4,9.3
				v5.5c0,5.3,0.1,6,0.2,6.2c0.1,0.1,0.4,0.2,0.9,0.2c0.7,0.1,1.8,0.1,3.2,0.1c2.8,0,5-0.3,6.2-0.8c-0.4,1-1,3.4-1.2,4.3
				c-0.3,0.1-0.9,0.1-2.5,0.1c-5.1,0-6.7-0.2-9.7-0.2c-1.6,0-2.4,0-3,0.1c0.1-1.2,0.4-4.5,0.4-9.5V212.1z"/>
			<path class="st3" d="M103.4,212.1c0-4.7-0.3-8.3-0.5-9.5c0.5,0.1,1.8,0.1,2.7,0.1c1.8,0,3.2-0.1,3.7-0.2
				c-0.2,1.3-0.4,4.8-0.4,9.3v5.5c0,5.3,0.1,6,0.2,6.2c0.1,0.1,0.4,0.2,0.9,0.2c0.7,0.1,1.8,0.1,3.2,0.1c2.8,0,5-0.3,6.2-0.8
				c-0.4,1-1,3.4-1.2,4.3c-0.3,0.1-0.9,0.1-2.5,0.1c-5.1,0-6.7-0.2-9.7-0.2c-1.6,0-2.4,0-3,0.1c0.1-1.2,0.4-4.5,0.4-9.5V212.1z"/>
			<path class="st3" d="M129.8,221.5c-0.1,0-0.2,0-0.2,0.1c-0.8,2.1-1.6,4.3-2,5.8c-0.6,0-1.2-0.1-2.5-0.1c-1.5,0-2.8,0.1-3.2,0.1
				c0.9-1.7,2.3-4.7,4.4-8.9l6.6-14.5c0.7-1.4,0.9-1.8,1.2-1.8c0.2,0,0.5,0.3,1.2,1.8c0.5,1.1,4.1,8.3,7.3,14.8
				c1.7,3.4,3.5,7.2,4.7,8.6c-1.2,0-2.4-0.1-2.8-0.1c-1.6,0-3.4,0.1-4.2,0.1c-0.6-1.5-1.7-4.2-2.5-5.8c0-0.1,0-0.1-0.2-0.1H129.8z
				 M136.3,218c0.1,0,0.1,0,0.1-0.2l-2.8-6.6l-2.7,6.6c0,0.1,0,0.2,0.1,0.2H136.3z"/>
			<path class="st3" d="M151.5,212.1c0-5.1-0.3-8.2-0.5-9.4c0.4,0,1.6,0.1,2.7,0.1s3.2-0.1,6.1-0.2c5.8,0,9.8,0.9,12.9,3.9
				c1.7,1.7,3.3,4.4,3.3,8.3s-1.8,7.1-3.7,8.9c-2,1.9-5,3.9-11.3,3.9c-1.4,0-2.9-0.1-4-0.2c-2-0.2-3.3-0.3-5.8-0.2
				c0.1-1.4,0.3-4.4,0.3-9.4V212.1z M157,216.1c0,3.5,0,4.6,0,5.3c0,1.6,0.1,2,0.3,2.2c0.4,0.3,2.1,0.8,4,0.8c2.3,0,4.4-0.4,6.2-2.2
				c1.6-1.7,2.3-4.1,2.3-6.6c0-2.2-0.5-4.5-2-6.5c-1.8-2.3-4.9-3.5-8.2-3.5c-1.2,0-2.1,0.1-2.5,0.2c-0.2,0.1-0.2,0.2-0.2,0.2
				c0,0.7,0,2.7,0,5.5V216.1z"/>
			<path class="st3" d="M180.6,212.1c0-4.7-0.2-8.2-0.5-9.4c0.5,0.1,1.7,0.1,2.6,0.1c2,0,3.3-0.1,3.8-0.2c-0.1,1.3-0.3,4.9-0.3,9.5
				v5.8c0,3.7,0.1,8.4,0.4,9.5c-0.4,0-1.5-0.1-2.7-0.1c-1.3,0-3.2,0.1-3.7,0.1c0.2-1.4,0.3-5.4,0.3-9.5V212.1z"/>
			<path class="st3" d="M190.9,215.2c0-6.3,4.4-13,14-13c8.6,0,13.5,5.7,13.5,12.2c0,7.5-4.9,13.4-13.9,13.4
				C194.9,227.8,190.9,221,190.9,215.2z M212.2,215.6c0-4.8-2.4-10.2-8.1-10.2c-3.8,0-6.9,2.6-6.8,8.5c0,5.3,2.6,10.6,8.2,10.6
				C208.1,224.5,212.2,223,212.2,215.6z"/>
			<path class="st3" d="M226.6,227.3c-0.5,0-2.8,0.1-3.2,0.2c0.4-3.7,0.7-20.9,0.7-27.5c0-2,0.2-2.1,0.4-2.1c0.2,0,0.5,0.2,1.3,1
				c4.6,4.2,14.6,14,19.3,17.9c0-3.2-0.2-13-0.6-18.3c0.4,0.1,1.7,0.1,2.4,0.1c1.3,0,2.9-0.1,3.3-0.2c-0.3,2.4-0.7,11.9-0.7,22.1
				c0,3.6,0,4.1,0,5c0,2.4-0.1,2.7-0.4,2.7c-0.4,0-1.4-0.9-4.4-3.6c-4.3-3.9-10.8-10.5-16.2-15.5c0.1,7.4,0.3,15.3,0.7,18.3
				C228.4,227.3,227.4,227.3,226.6,227.3z"/>
		</g>
		<g>
			<path class="st1" d="M35.3,245.7c0-2.6-0.1-4.5-0.2-5.2c0.3,0,0.6,0,1.1,0c0.8,0,1.6-0.1,2.9-0.1c2.4,0,3.5,0.4,4.4,1.2
				c0.5,0.4,1.1,1.4,1.1,2.6c0,2.7-2.3,4.3-5,4.2c-0.1-0.3-0.3-1.1-0.4-1.4c1.4-0.1,2.8-0.6,2.8-2.5c0-1-0.3-1.6-0.9-2
				c-0.4-0.4-1.2-0.7-2.1-0.7c-0.3,0-0.7,0-0.8,0.1c-0.1,0-0.1,0.1-0.1,0.4v6.5c0,2,0.1,4.3,0.2,5.1c-0.3,0-0.9,0-1.4,0
				s-1.4,0-1.7,0.1c0.1-0.8,0.2-3,0.2-5.2V245.7z"/>
			<path class="st1" d="M47.1,246.9c0-2.2,0-3.8-0.2-4.4c0.4,0,0.8,0.1,1.2,0.1c0.3,0,1.9-0.1,2.6-0.1c1.5,0,2.5,0.2,3.2,0.6
				c0.8,0.4,1.6,1.3,1.6,2.6c0,1.2-0.7,2.3-2,3.1c0.9,1.2,1.9,2.7,2.9,3.8c0.7,0.8,1.3,1.3,1.6,1.4c-0.3,0.1-1.2,0.2-1.8,0.2
				c-1.2,0-1.7-0.3-2.2-0.7c-1-0.8-2.2-3-2.7-3.8c0-0.1-0.1-0.1-0.2-0.1h-1.4c0,0-0.1,0-0.1,0.1v0.4c0,1.7,0.1,3.2,0.2,4
				c-0.3,0-0.7,0-1.2,0c-0.5,0-1.5,0-1.7,0.1c0.1-0.7,0.2-2.5,0.2-4.4V246.9z M49.6,247.7c0,0.1,0,0.2,0.1,0.2
				c0.3,0.1,0.8,0.2,1.5,0.2c0.4,0,0.6,0,0.8-0.2c0.4-0.3,0.8-0.8,0.8-1.7c0-1.6-1.2-2.3-2.4-2.3c-0.4,0-0.7,0-0.8,0.1
				c-0.1,0-0.1,0.1-0.1,0.1V247.7z"/>
			<path class="st1" d="M58.2,248.3c0-3,2-6,6.5-6c4,0,6.3,2.6,6.3,5.7c0,3.5-2.3,6.3-6.5,6.3C60,254.2,58.2,251,58.2,248.3z
				 M68.1,248.5c0-2.3-1.1-4.8-3.8-4.8c-1.8,0-3.2,1.2-3.2,4c0,2.5,1.2,4.9,3.8,4.9C66.2,252.7,68.1,252,68.1,248.5z"/>
			<path class="st1" d="M72.4,242.3c0.5,0.1,1.3,0.2,2.7,0.2h5.4c1.1,0,2.3-0.1,2.7-0.2c-0.2,0.7-0.2,1.6-0.3,2.3
				c-0.3-0.2-0.9-0.4-1.8-0.4c-0.6,0-1.2-0.1-2.3-0.1v5.4c0,1.7,0.1,3.7,0.2,4.5c-0.3,0-0.7,0-1.2,0c-0.8,0-1.5,0-1.8,0.1
				c0.1-0.7,0.2-2.5,0.2-4.4v-5.4c-0.6,0-1,0-2,0c-1.2,0.1-1.6,0.1-2.2,0.3C72.2,244.1,72.3,242.9,72.4,242.3z"/>
			<path class="st1" d="M85.3,246.9c0-2.5-0.1-3.9-0.2-4.4c0.4,0.1,1,0.1,1.6,0.1h3.9c0.6,0,1.3,0,1.6-0.1c-0.1,0.4-0.2,1.2-0.2,2.2
				c-0.3-0.2-0.7-0.3-1.7-0.4c-0.6,0-1.6-0.1-2.3-0.1c0,0-0.1,0-0.1,0.1v2.8c0,0,0,0.1,0.1,0.1c0.4,0,1.8,0,2.4,0
				c1,0,1.3-0.1,1.5-0.2c-0.1,0.6-0.2,1.7-0.2,2.2c-0.3-0.2-0.6-0.3-1.3-0.3c-0.5-0.1-1.9-0.1-2.4-0.1c0,0-0.1,0-0.1,0.1v0.6
				c0,2.4,0,2.8,0.1,2.9c0.1,0,0.2,0.1,0.4,0.1c0.4,0.1,0.9,0.1,1.5,0.1c1.2,0,2.1-0.1,2.8-0.4c-0.2,0.6-0.4,1.5-0.4,2
				c-0.1,0-0.3,0.1-1,0.1c-2.1,0-3.4-0.1-4.5-0.1c-0.8,0-1.4,0-1.7,0c0.1-0.6,0.2-2.1,0.2-4.4V246.9z"/>
			<path class="st1" d="M96.4,252.6c-1.6-1.3-2-3-2-4.5c0-1.1,0.3-2.9,1.9-4.2c1.3-1.1,2.9-1.6,5.2-1.6c2.1,0,3.4,0.4,4.1,0.5
				c-0.1,0.5-0.3,1.6-0.3,2.4c-0.8-0.7-2.1-1.4-4-1.4c-1.1,0-2,0.3-2.6,0.8c-1,0.8-1.3,1.9-1.3,3.1c0,2.4,1.5,4.6,4.8,4.6
				c1.3,0,2.5-0.2,3.5-0.8c-0.2,0.5-0.4,1.7-0.4,2.2c-0.6,0.2-2,0.5-3.4,0.5C99.9,254.2,98,253.9,96.4,252.6z"/>
			<path class="st1" d="M107.3,242.3c0.5,0.1,1.3,0.2,2.7,0.2h5.4c1.1,0,2.3-0.1,2.7-0.2c-0.2,0.7-0.2,1.6-0.3,2.3
				c-0.3-0.2-0.9-0.4-1.8-0.4c-0.6,0-1.2-0.1-2.3-0.1v5.4c0,1.7,0.1,3.7,0.2,4.5c-0.3,0-0.7,0-1.2,0c-0.8,0-1.5,0-1.8,0.1
				c0.1-0.7,0.2-2.5,0.2-4.4v-5.4c-0.6,0-1,0-2,0c-1.2,0.1-1.6,0.1-2.2,0.3C107.1,244.1,107.3,242.9,107.3,242.3z"/>
			<path class="st1" d="M120.2,246.9c0-2.2-0.1-3.8-0.2-4.4c0.2,0,0.8,0,1.2,0c1,0,1.6-0.1,1.8-0.1c-0.1,0.6-0.2,2.3-0.2,4.5v2.7
				c0,1.7,0.1,3.9,0.2,4.4c-0.2,0-0.7,0-1.3,0c-0.6,0-1.5,0-1.7,0.1c0.1-0.7,0.2-2.5,0.2-4.4V246.9z"/>
			<path class="st1" d="M126.1,242.5c0.9,0,1.8-0.1,2-0.1c0.1,0.5,0.4,1.4,0.9,2.6c0.5,1.3,1.3,3,2,4.6c0.7-1.5,1.6-3.3,2.3-5.1
				c0.4-1,0.6-1.7,0.7-2.1c0.3,0,0.8,0.1,1,0.1c0.8,0,1.4,0,1.8-0.1c-0.3,0.4-1.3,2-1.8,3c-0.4,0.7-1,1.9-1.6,3.2
				c-1,2.2-1.7,3.5-2.2,4.5c-0.5,1-0.7,1.1-0.8,1.1c-0.1,0-0.2-0.1-0.6-1c-1.1-2.5-2.2-4.9-3.4-7.4c-0.6-1.5-1.2-2.5-1.8-3.3
				C125.1,242.5,126,242.5,126.1,242.5z"/>
			<path class="st1" d="M138.7,246.9c0-2.5-0.1-3.9-0.2-4.4c0.4,0.1,1,0.1,1.6,0.1h3.9c0.6,0,1.3,0,1.6-0.1
				c-0.1,0.4-0.2,1.2-0.2,2.2c-0.3-0.2-0.7-0.3-1.7-0.4c-0.6,0-1.6-0.1-2.3-0.1c0,0-0.1,0-0.1,0.1v2.8c0,0,0,0.1,0.1,0.1
				c0.4,0,1.8,0,2.4,0c1,0,1.3-0.1,1.5-0.2c-0.1,0.6-0.2,1.7-0.2,2.2c-0.3-0.2-0.6-0.3-1.3-0.3c-0.5-0.1-1.9-0.1-2.4-0.1
				c0,0-0.1,0-0.1,0.1v0.6c0,2.4,0,2.8,0.1,2.9c0.1,0,0.2,0.1,0.4,0.1c0.4,0.1,0.9,0.1,1.5,0.1c1.2,0,2.1-0.1,2.8-0.4
				c-0.2,0.6-0.4,1.5-0.4,2c-0.1,0-0.3,0.1-1,0.1c-2.1,0-3.4-0.1-4.5-0.1c-0.8,0-1.4,0-1.7,0c0.1-0.6,0.2-2.1,0.2-4.4V246.9z"/>
			<path class="st1" d="M154.7,252.3c-1.7-1.5-2.2-3.6-2.2-5.3c0-1.3,0.4-3.4,2.1-4.9c1.4-1.2,3.2-1.9,5.8-1.9
				c2.4,0,3.9,0.5,4.6,0.6c-0.1,0.5-0.3,1.7-0.3,2.6c-0.8-0.8-2.4-1.6-4.5-1.6c-1.5,0-2.5,0.5-3.2,1.1c-1.1,1-1.5,2.3-1.5,3.8
				c0,2.9,1.7,5.5,5.6,5.5c1.4,0,2.9-0.3,3.9-1c-0.2,0.5-0.4,1.8-0.5,2.4c-0.7,0.3-2.3,0.6-3.8,0.6
				C158.6,254.3,156.4,253.8,154.7,252.3z"/>
			<path class="st1" d="M167.6,246.9c0-2.2-0.1-3.9-0.2-4.4c0.2,0,0.8,0.1,1.3,0.1c0.8,0,1.5,0,1.7-0.1c-0.1,0.6-0.2,2.2-0.2,4.3
				v2.5c0,2.5,0,2.8,0.1,2.9c0.1,0.1,0.2,0.1,0.4,0.1c0.3,0,0.8,0.1,1.5,0.1c1.3,0,2.4-0.1,2.9-0.4c-0.2,0.5-0.4,1.6-0.6,2
				c-0.1,0-0.4,0-1.2,0c-2.4,0-3.1-0.1-4.5-0.1c-0.8,0-1.1,0-1.4,0c0.1-0.6,0.2-2.1,0.2-4.4V246.9z"/>
			<path class="st1" d="M176,248.3c0-3,2-6,6.5-6c4,0,6.3,2.6,6.3,5.7c0,3.5-2.3,6.3-6.5,6.3C177.9,254.2,176,251,176,248.3z
				 M185.9,248.5c0-2.3-1.1-4.8-3.8-4.8c-1.8,0-3.2,1.2-3.2,4c0,2.5,1.2,4.9,3.8,4.9C184.1,252.7,185.9,252,185.9,248.5z"/>
			<path class="st1" d="M190.3,242.3c0.5,0.1,1.3,0.2,2.7,0.2h5.4c1.1,0,2.3-0.1,2.7-0.2c-0.2,0.7-0.2,1.6-0.3,2.3
				c-0.3-0.2-0.9-0.4-1.8-0.4c-0.6,0-1.2-0.1-2.3-0.1v5.4c0,1.7,0.1,3.7,0.2,4.5c-0.3,0-0.7,0-1.2,0c-0.8,0-1.5,0-1.8,0.1
				c0.1-0.7,0.2-2.5,0.2-4.4v-5.4c-0.6,0-1,0-2,0c-1.2,0.1-1.6,0.1-2.2,0.3C190,244.1,190.2,242.9,190.3,242.3z"/>
			<path class="st1" d="M203.1,246.9c0-2.2-0.1-3.7-0.2-4.4c0.2,0,0.8,0.1,1.3,0.1c0.8,0,1.4-0.1,1.7-0.1c-0.1,0.6-0.1,1.8-0.1,4.1
				v0.2c0,0.1,0,0.1,0.1,0.1h5.2c0,0,0.1,0,0.1-0.1v-0.2c0-2.2-0.1-3.5-0.2-4.1c0.3,0,0.7,0.1,1.3,0.1c0.7,0,1.3,0,1.7-0.1
				c-0.1,0.6-0.2,2.3-0.2,4.4v2.7c0,1.7,0.1,3.6,0.2,4.4c-0.2,0-0.8,0-1.3,0c-0.6,0-1.5,0-1.7,0.1c0.1-0.7,0.2-2.5,0.2-4.4v-0.8
				c0-0.1,0-0.1-0.1-0.1h-5.2c-0.1,0-0.1,0-0.1,0.1v0.8c0,1.7,0.1,3.6,0.2,4.4c-0.2,0-0.6,0-1.1,0c-0.8,0-1.5,0-1.8,0.1
				c0.1-0.7,0.2-2.5,0.2-4.4V246.9z"/>
			<path class="st1" d="M217.8,246.9c0-2.2-0.1-3.8-0.2-4.4c0.2,0,0.8,0,1.2,0c1,0,1.6-0.1,1.8-0.1c-0.1,0.6-0.2,2.3-0.2,4.5v2.7
				c0,1.7,0.1,3.9,0.2,4.4c-0.2,0-0.7,0-1.3,0c-0.6,0-1.5,0-1.7,0.1c0.1-0.7,0.2-2.5,0.2-4.4V246.9z"/>
			<path class="st1" d="M225.6,254c-0.2,0-1.3,0-1.4,0.1c0.2-1.5,0.3-8.3,0.3-10.9c0-0.8,0-0.8,0.2-0.8c0.1,0,0.2,0.1,0.6,0.4
				c2,1.7,5.6,5.1,7.8,6.7c0-1,0-4.6-0.3-6.9c0.2,0,0.8,0.1,1.1,0.1c0.6,0,1.3-0.1,1.5-0.1c-0.2,1-0.3,5.3-0.3,8.9
				c0,0.8,0,1.8,0,2.1c0,0.7,0,0.8-0.2,0.8c-0.2,0-0.6-0.3-1.9-1.4c-1.9-1.6-4.7-4.3-6.4-5.7c0,2.9,0.1,5.7,0.3,6.9
				C226.4,254,226,254,225.6,254z"/>
			<path class="st1" d="M249.5,252c0,1,0,1.4,0,1.7c-0.9,0.3-2.7,0.6-4.2,0.6c-2.8,0-4.8-0.9-6-2.4c-0.8-1-1.2-2.2-1.2-3.7
				c0-2.5,1.3-4,2.7-4.8c1.4-0.9,3.4-1,4.6-1c2,0,3.6,0.4,4.2,0.5c-0.1,0.4-0.3,1.7-0.3,2.6c-0.6-0.6-2.1-1.5-4.3-1.5
				c-1.4,0-2.3,0.4-3,1.1c-0.7,0.7-1,1.7-1,2.8c0,2.8,1.5,4.8,4.6,4.8c0.4,0,1.1,0,1.3-0.2c0,0,0-0.2,0-0.4v-1.1
				c0-1.3-0.1-2.2-0.3-2.5c0.3,0,0.9,0,1.4,0c0.9,0,1.3,0,1.6-0.1c-0.1,0.4-0.1,1.4-0.1,3.1V252z"/>
		</g>
	</g>
</g>
</svg>
